<svg xmlns="http://www.w3.org/2000/svg" xmlns:xlink="http://www.w3.org/1999/xlink" viewBox="0 0 176.61 171.7"><defs><style>.cls-1{fill:#fff;}.cls-2{fill:#29235c;}.cls-3{fill:url(#radial-gradient);}.cls-4{fill:none;}.cls-5{font-size:33.6px;fill:#1d1d1b;font-family:SegoeUIHistoric, Segoe UI Historic;}</style><radialGradient id="radial-gradient" cx="86.73" cy="79.71" r="22.67" gradientUnits="userSpaceOnUse"><stop offset="0.13" stop-color="#040509"/><stop offset="0.52" stop-color="#29235c"/><stop offset="0.67" stop-color="#2e497f"/><stop offset="0.97" stop-color="#4885b7"/></radialGradient></defs><title>Asset 4</title><g id="Layer_2" data-name="Layer 2"><g id="Layer_1-2" data-name="Layer 1"><path class="cls-1" d="M37.33,77.4A17.38,17.38,0,0,1,20,94.78c-9.6,0-10.17-10.17-17.38-17.38C-4.22,70.61,10.35,60,20,60A17.38,17.38,0,0,1,37.33,77.4Z"/><path class="cls-2" d="M22.49,94.11l-.44,0a17.52,17.52,0,0,0,4.33-1,18,18,0,0,1-5,.86A31.16,31.16,0,0,1,17,93.83a3.11,3.11,0,0,0-.52-.38,9.39,9.39,0,0,1-.93-.59l-.84-.62a2.24,2.24,0,0,0-.38-.32A9.42,9.42,0,0,1,13,90.69c.32.3.61.64.94.91-.33-.27-.62-.61-.94-.91-2.81-3-4.43-7.61-7.4-11.71l-.76-1L3.74,76.75c-.22-.24-.36-.42-.51-.6a3.22,3.22,0,0,1-.41-.58,3.84,3.84,0,0,1-.52-1.28c-.39-1.8.85-3.84,1.65-4.75.21-.29.46-.56.7-.83a11.2,11.2,0,0,0-.8.9,15.78,15.78,0,0,1,2.82-3.33,3.88,3.88,0,0,0-.79.43l.57-.44a14,14,0,0,1,2.25-1.9c-.1.14.39-.15.83-.4L9.34,64a28.29,28.29,0,0,1,5.29-2.53,2.9,2.9,0,0,1,.51-.13c.52-.18,1-.35,1.57-.48-.1.08,1.35-.22.59,0a12.77,12.77,0,0,1,3.61-.42,17,17,0,0,1,6.3,1.4,16.61,16.61,0,0,1,5.43,3.8l-.06-.09a15.88,15.88,0,0,1,2.8,3.89A16.56,16.56,0,0,1,36.75,73a10.94,10.94,0,0,1,.37,1.83c0,.27.08.54.12.83l0,1c0-.4.06,1.48,0,.73-.06-1,0-1.07-.11-1.93v0A18,18,0,0,0,24.77,60.26a17.58,17.58,0,0,0-4.69-.79,16.16,16.16,0,0,0-4.42.51c-.62.16-1.08.22-1.62.33A27.26,27.26,0,0,0,6.49,64l.11-.07a22.45,22.45,0,0,0-3.23,2.5s-.14.19-.2.28a10.51,10.51,0,0,0-2.59,3.8A7.21,7.21,0,0,0,0,73.72,6.05,6.05,0,0,0,.21,74.9c.09.3.16.5.17.57a2.81,2.81,0,0,0,.21.47A8.13,8.13,0,0,0,2,78c.45.57.93,1.09,1.34,1.67C4.14,80.84,4.88,82,5.57,83l1.07,1.24c.17.41.33.41.6.88.44,1.33,1,2,.7,1.3.62.95,1.22,1.94,1.8,2.79l.89,1.13a2.5,2.5,0,0,1,.48.71c.71.79.47.59,1.25,1.41a5.7,5.7,0,0,0,1.24,1c.61.39,1.29.66,1.42.76l-.17-.08c.57.33,1.1.49,1.59.74a15.34,15.34,0,0,0,1.68.41,17.1,17.1,0,0,0,5.34-.38A19.84,19.84,0,0,0,28.2,93s-.62.33-.67.31a17,17,0,0,0,4.55-3.27,7,7,0,0,0,.63-.65l.52-.6.05,0c.41-.49.56-.75.92-1.23l.26-.38.32-.54h0l.19-.33a17.94,17.94,0,0,0,1.16-2.52l0-.11c.12-.32.16-.46.1-.27l.14-.4,0,.05.14-.39c0-.08.05-.16,0-.05l.18-.72A16.6,16.6,0,0,1,36.07,84l.38-1c.15-.34.29-1.08.45-1.65,0-.13.06-.21.11-.5l.08-.57c-.05.28-.07.55-.13.83,0,0,.1-.68.14-.9s.09-.63.15-1c0,.15,0-.27,0-.48s0-.38,0-.28c0-.08,0,.92,0,.59l0-.78s0,.17,0,0l0-.71,0,.24-.07,1.46.09-1.78c0,.21,0-.16,0,.07l0,.25c0,.3,0,.43,0,.32l0,1c0,.06,0,.12,0,.18,0-.19,0-.68,0-.87l0-.46v-.07a3,3,0,0,1,0-.38c-.07,1.26,0-.82,0,.39,0-.5,0,.18,0,.71l0,.67,0,.26-.08.48-.11.72,0,.18-.33,1.27c0,.12-.13.5-.06.22l.11-.39c-.08.27.14-.56.17-.67l-.25.94,0-.07a9.38,9.38,0,0,1-.4,1.2l.06-.15-.15.4s0,.1,0,0l-.19.52s-1,2-1,2l-.36.58.23-.38a7,7,0,0,0,.48-.84c.3-.61.57-1.19.48-1A18.22,18.22,0,0,1,35,86.08l-.62,1-.37.5c-.13.18-.3.4-.26.36-.23.3.06-.1-.11.12,0,0,0,0,0,0l-.17.2c-.38.46-1,1.11-1.41,1.54a6.09,6.09,0,0,0,.53-.58l.05-.05s.26-.28.25-.28c-.27.27-.47.52-.76.8l-.17.14h0c-.1.08-.09.07-.06,0l0,0a18.81,18.81,0,0,1-1.69,1.39l-.21.17a19.14,19.14,0,0,1-1.66,1c-.2.13-.21.15.05,0a4.66,4.66,0,0,1-.5.25c.43-.26-1,.39-.49.11l-.73.33s-.06.06-.43.19l-.83.25c-.11,0,.05,0,0-.05a6.09,6.09,0,0,1-1.22.27l-.74.18a2.91,2.91,0,0,0-.46.1C22.45,94.19,22.44,94.16,22.49,94.11Z"/><path class="cls-1" d="M124.47,65.79a17.38,17.38,0,1,1,34.76,0c0,9.6-9.13,22.29-17.38,17.38C132.62,77.68,124.47,75.39,124.47,65.79Z"/><path class="cls-2" d="M124.52,64.92v.16c0,.55-.07,1.34,0,0v-.19c0-.34,0-.69.06-1l.15-1a8.56,8.56,0,0,1,.19-1l.25-1a18,18,0,0,1,35,8.35,23.5,23.5,0,0,1-6.39,12.09,12.81,12.81,0,0,1-6.06,3.5,8,8,0,0,1-3.6,0l-.86-.26-.82-.36c-.52-.28-1-.58-1.47-.87-3.66-2.38-7.66-4.33-11.17-7l-.9-.77c-.15-.14-.32-.26-.46-.41l-.85-.87s-.16-.18-.4-.5a8.76,8.76,0,0,1-.92-1.3,12.42,12.42,0,0,1-1-1.86,14.24,14.24,0,0,1-.55-2,13.77,13.77,0,0,1-.23-2.27c0-.42,0-.53,0-.41l.06,1c0,.24,0,.52,0,.83s.11.63.18,1a3.5,3.5,0,0,0,.21.9l.32,1,.53,1.12a10.78,10.78,0,0,0,1.34,1.93,6.81,6.81,0,0,0,.73.79c.3.27.57.56.87.81l.47.37.63.49c.44.31.88.62,1.33.91C133,78,134.94,79,136.87,80l2.91,1.46c.95.47,1.95,1.06,2.86,1.48a6.7,6.7,0,0,0,5.69,0A13.3,13.3,0,0,0,153,79.09a23.39,23.39,0,0,0,4.85-11.15,16.74,16.74,0,0,0-32.61-7.07l-.27,1a5.82,5.82,0,0,0-.2,1l-.16,1C124.54,64.23,124.54,64.58,124.52,64.92Z"/><line class="cls-1" x1="98.32" y1="126.18" x2="89.6" y2="96.72"/><path class="cls-2" d="M97.41,119.25l0-.13a10.16,10.16,0,0,1,.29,1.24c.1-1,.1-2.14-.86-2.6.38-.2.31-1.12.21-1.11a5.48,5.48,0,0,1-.35-.49l.21.35-.21-.35a10.1,10.1,0,0,1-1.12-3.73c-.14-.75-.63-2.74-.74-3.52,0-.11,0-.22,0-.34,0,.2,0,.2,0,.39-.24-.43-.47-.8-.66-1.18a.9.9,0,0,0-.12.3l0-.21c-.22-.13-.34-.56-.47-.74.1,0,.07-.15,0-.29l0,.07c-.12-.54-.37-1.13-.5-1.61a.21.21,0,0,1,0-.16l-.2-.43c.13,0,0-.41.13-.22-.24-.29-.26-.66-.5-.94a25.41,25.41,0,0,0-1.36-3.49l0,0a3.74,3.74,0,0,1-.62-1.23c-.26-.31-.5-.8-.79-.87-.16-.41-.33-.54-.52-.94-.09.15-.26-.35-.3-.12s.06.29,0,.57l0,0a29.45,29.45,0,0,0,.62,3.35,23.11,23.11,0,0,1,.72,2.27c.29.8.63,1.66.94,2.33a.76.76,0,0,1,0,.47c.25.63.45,1.46.73,2.17a.06.06,0,0,0,0,0c.14.38.1.71.23,1.08,0,0,.06,0,.08.07-.14.11,1,2.12.94,2.28l.06.12A22.76,22.76,0,0,0,93.5,114c.12.12.24.27.36.37,0,.14.11.12.13.27-.22.47,0,.65,0,.42a7.38,7.38,0,0,1,.29.87c.06.12.12.24.19.36a.2.2,0,0,1,0,.25c.12.26,0,.2.07.5-.09.1.4.67.39.76l0,0c.08.34-.07.62,0,.95.18.93.56,1.89.76,2.74.13,0-.08-.17.08-.23.12.5.12,1,.25,1.55a.69.69,0,0,1-.06.28c0,.17.09.08.11.2l-.11,0c.14.15,0,.29,0,.44,0,0,.07,0,.08.11s.06.17,0,.19h0s0,.06,0,.11.55.57.62.62v0c0,.09.13.1.13,0l0,.12h0l0,.11a.08.08,0,0,1-.11,0,.24.24,0,0,1,.1.18,3.36,3.36,0,0,1,.11-.66c.06.06,0,.22.08.3a1.93,1.93,0,0,0-.06.51s.15,0,.12.12,0,.08,0,.17c-.07-.06-.07-.14-.09-.22s0,.21,0,.27.05.18.11.26c-.11,0,0,.1-.08.17s.06.09.08.06,0-.27.14-.22c0,0,0,.16,0,.22s0-.06.1,0,.1.13,0,.19,0,0,0-.06-.54-.4-.47-.29c0,0,.51.44.5.37s.12,0,.12,0l-.09-.05a.14.14,0,0,1,.14-.14c0,.14-.52-.27-.43-.17l0-.05s.12.16.08.23.1,0,.13.09v0s.06.13.12.07c-.11-.34.66,0,.6-.29-.09.17-.15,0-.2-.15a.28.28,0,0,0,.08-.22c0-.09-.06,0-.1,0s0-.16.09-.17c-.11,0,0-.12,0-.2s0,0-.09,0,0-.27-.06-.37.13-.19.25-.14-.18,0-.1.15c.12-.12.08.14.2.14a.27.27,0,0,0,0-.27v0a.39.39,0,0,1-.07-.35s.08,0,.11,0l0-.12s0,0,0,0a.14.14,0,0,1,0-.16s-.41-.54-.37-.53,0-.12,0-.19a3.75,3.75,0,0,0,.37.63c0-.09-.54-.85-.46-.93s0-.13-.1-.1.11,0,.14-.09,0,0,0,0l0-.09c-.13-.14-.09-.4-.25-.54a.77.77,0,0,1,.28.15l0,0s.07.09.12.07a.37.37,0,0,0-.11-.29s0,0,0-.07h0s0,0,.06,0h0c.15-.11-.22-.37-.19-.58,0-.05,0,0-.08-.06a3.49,3.49,0,0,0,0-.56c-.09,0-.12,0-.17.06l0-.16c.22.08.09-.34.32-.24a.23.23,0,0,0,0-.22s-.13,0-.16-.1a1.86,1.86,0,0,1,0-.26s.08,0,.13,0c-.13-.17.08-.2,0-.38s-.12-.32-.23-.3C97.24,119.28,97.32,119.26,97.41,119.25Z"/><line class="cls-1" x1="129.51" y1="72.8" x2="102.75" y2="80.62"/><path class="cls-2" d="M128.32,71.85a.22.22,0,0,1,.17,0c.63.18,1.64.83.69,2.22a.58.58,0,0,1-.16.15l-4,1.16-11,3.2-2.2.64s-3.71.82-6.36,1.2c-4.48.75-2.9-.28-.3-1.35-.3,0,6.27-2.32,6.27-2.32l1.9-.55,11-3.21Z"/><line class="cls-1" x1="85.71" y1="64.3" x2="85.71" y2="27.65"/><path class="cls-2" d="M86.8,56.06v-.15c0,.49,0,1-.07,1.52.37-1.11.7-2.42-.09-3.28.42-.09.62-1.17.51-1.19-.07-.22-.14-.45-.19-.68,0,.16.06.31.1.47,0-.16-.07-.31-.1-.47a14.42,14.42,0,0,1,0-4.64c.08-.91.17-3.36.3-4.28,0-.13,0-.27,0-.4l-.08.45c-.11-.57-.22-1.08-.29-1.57a.82.82,0,0,0-.21.3l0-.25a3.54,3.54,0,0,1-.24-1c.09.06.11-.14.12-.31l-.06.07c0-.66,0-1.43,0-2a.27.27,0,0,1,.06-.18l-.07-.57c.13,0,.11-.46.19-.2-.15-.42-.06-.85-.21-1.25A35.85,35.85,0,0,0,86.2,32l0,0a4.81,4.81,0,0,1-.25-1.61c-.16-.45-.25-1.1-.51-1.28,0-.52-.16-.73-.23-1.24-.13.14-.15-.49-.25-.24s0,.36-.17.64h0c-.19,1.34-.3,2.68-.36,4,.11.91,0,1.9,0,2.84s.13,2.11.24,3a1.09,1.09,0,0,1-.13.53c0,.8,0,1.82.08,2.73v-.05c0,.48-.11.84-.08,1.31,0,0,0,.07,0,.11-.17.08.36,2.76.26,2.93s0,.1,0,.15c-.08,1-.41,2-.38,2.86a5.67,5.67,0,0,0,.24.55c-.07.15.07.18,0,.36-.34.46-.2.73-.08.49a10.38,10.38,0,0,1,0,1.1c0,.15,0,.31.08.46a.25.25,0,0,1-.1.28c0,.34,0,.24-.07.6-.12.09.19.9.15,1l0-.06c0,.41-.25.69-.26,1.09-.08,1.13,0,2.36,0,3.4.13,0,0-.23.14-.24,0,.61-.18,1.23-.2,1.85a1,1,0,0,1-.13.3c0,.2.06.12,0,.27l-.11,0c.09.21-.13.31-.08.51,0,0,0,.08,0,.15s0,.22-.1.21h0a.34.34,0,0,1,0,.13c0,.08.37.84.42.92l0,0c0,.11.09.16.11.1v.26a.07.07,0,0,1-.11,0,.34.34,0,0,1,0,.24,4.8,4.8,0,0,1,.3-.72c0,.09,0,.26,0,.37a2.22,2.22,0,0,0-.2.57s.14.07.08.17,0,.11-.07.19a.67.67,0,0,1,0-.28c-.11,0-.07.23-.1.31s0,.21,0,.33c-.11,0-.07.09-.13.16s0,.12.07.09.07-.3.19-.2c-.06,0,0,.18,0,.26s0-.05.1,0,.06.19,0,.24,0,0,0-.08c0,.12-.4-.64-.36-.49.05,0,.36.68.37.6s.11,0,.13,0l-.07-.08c0-.1.13-.14.17-.11s-.42-.48-.36-.34l0-.05a.3.3,0,0,1,0,.29c.06,0,.08.08.1.15v0c0,.07,0,.17.1.13,0-.42.62.27.66-.13-.14.17-.14-.06-.16-.24a.3.3,0,0,0,.15-.22c0-.11,0-.07-.08-.09s0-.18.12-.16c-.08-.09.06-.14,0-.25s0,0-.08,0,0-.33,0-.44.18-.17.29-.08-.17-.08-.15.14c.15-.1,0,.19.16.23a.44.44,0,0,0,0-.33l0,0a.56.56,0,0,1,0-.42s.09,0,.1.06v-.14s0,0,0,0,0-.13,0-.19-.24-.75-.2-.73.08-.13,0-.23a5.62,5.62,0,0,0,.18.85c.06-.09-.28-1.16-.18-1.23s0-.16-.07-.15.11,0,.16,0,0,0,0,0l.07-.09c-.09-.2,0-.49-.09-.7a.69.69,0,0,1,.22.27l0,0s0,.13.1.13a.48.48,0,0,0,0-.37.56.56,0,0,1,.05-.08h0s0,0,.07,0h0c.17-.08-.1-.5,0-.73,0-.07,0,0-.06-.09a5.13,5.13,0,0,0,.16-.65c-.07-.08-.1-.09-.18,0l0-.19c.2.17.19-.35.38-.16a.37.37,0,0,0,0-.28s-.12,0-.12-.16,0-.14.1-.29.09,0,.14,0c-.08-.24.13-.21.12-.43s0-.41-.13-.42C86.63,56,86.71,56,86.8,56.06Z"/><line class="cls-1" x1="70.18" y1="83.27" x2="33.07" y2="77.89"/><path class="cls-2" d="M62,81l-.15,0a14.56,14.56,0,0,1,1.52.3C62.3,80.7,61,80.18,60,80.85c0-.44-1.09-.79-1.13-.69q-.36.06-.72.09l.5,0-.5,0a15.41,15.41,0,0,1-4.7-.66c-.9-.21-3.37-.66-4.29-.92l-.4-.1.44.14c-.58,0-1.12.06-1.63.06a1,1,0,0,0,.29.25l-.25-.08a3.46,3.46,0,0,1-1.06.09c.07-.08-.13-.13-.3-.17l.06.07c-.66-.13-1.45-.17-2-.27a.25.25,0,0,1-.17-.09h-.58c.06-.12-.46-.18-.18-.21-.45.08-.87-.07-1.3,0A39.4,39.4,0,0,0,37.53,78l0,0a5.12,5.12,0,0,1-1.66,0c-.48.1-1.15.09-1.37.32-.53,0-.76,0-1.28,0,.11.15-.53.08-.29.22s.36.08.63.26v0c1.33.38,2.67.69,4,1,.94,0,1.92.26,2.88.36s2.16.19,3.06.21c.22,0,.35.12.52.21.82.06,1.85.25,2.78.31h0c.49,0,.84.23,1.32.28,0,0,.07,0,.11,0,.06.18,2.85.06,3,.18h.16c1,.22,2,.7,2.84.79.2,0,.42-.09.59-.15s.19,0,.37,0c.42.4.71.3.49.15.39,0,.77.1,1.11.13h.49a.25.25,0,0,1,.26.14c.36,0,.24.07.6.16.07.13.94,0,1,0h-.06c.42.08.66.34,1.07.41,1.13.26,2.39.35,3.44.54,0-.12-.24,0-.23-.17.62.11,1.23.36,1.85.47a1.22,1.22,0,0,1,.29.18c.19.07.12,0,.27,0v.12c.23-.06.3.16.51.15,0,0,.09,0,.16,0s.22,0,.2.13h0a.19.19,0,0,1,.12,0c.09,0,.91-.24,1-.28l0,0c.11,0,.17-.06.11-.09l.14,0h0l.14,0s0,.07,0,.12a.39.39,0,0,1,.26,0,7.17,7.17,0,0,1-.69-.4c.1,0,.26.06.37.06a2.34,2.34,0,0,0,.55.28s.09-.12.18,0,.12,0,.19.09a.57.57,0,0,1-.29,0c0,.11.22.11.3.15s.22,0,.34,0c-.07.09.08.08.14.14s.13,0,.11,0-.3-.11-.18-.21c0,.06.18.06.26.07s-.05-.06,0-.11.2,0,.25,0a.15.15,0,0,1-.09,0c.12,0-.7.31-.54.29,0-.06.73-.26.65-.28s.07-.1,0-.13l-.1.06c-.1,0-.12-.15-.08-.19s-.55.35-.4.31l0,0c.07,0,.24,0,.29,0s.1-.06.17-.08l0,0c.07,0,.17,0,.14-.08-.43,0,.37-.57,0-.67.15.16-.08.13-.26.12a.32.32,0,0,0-.21-.18c-.11,0-.07,0-.1.07s-.17-.08-.14-.15-.14-.07-.25-.06,0,0-.07.07l-.44-.1c0-.07-.14-.21,0-.3s-.11.16.11.17c-.07-.17.21,0,.26-.13a.45.45,0,0,0-.32-.09l0,0a.58.58,0,0,1-.42-.09c0-.05,0-.1.07-.1l-.15,0s0,0,0,0a.17.17,0,0,1-.18,0c0-.06-.8.12-.77.09s-.12-.1-.23-.06a5.49,5.49,0,0,0,.88,0c-.08-.07-1.22.11-1.27,0s-.17,0-.16.06.06-.11,0-.17,0,0,0,0l-.08-.08c-.22,0-.5-.1-.72,0a.7.7,0,0,1,.3-.18l0,0s.13,0,.14-.08a.55.55,0,0,0-.38,0l-.07-.06v0s0,0,0-.06h0c-.06-.18-.53,0-.75-.09-.07,0,0,0-.1,0a6.08,6.08,0,0,0-.64-.25c-.09.06-.1.09,0,.18l-.19,0c.2-.17-.33-.23-.11-.4a.36.36,0,0,0-.27-.06.14.14,0,0,1-.18.1L63,81.42c0-.07,0-.08,0-.14-.25,0-.19-.16-.41-.18s-.42,0-.45.07C62,81.14,62,81.06,62,81Z"/><circle class="cls-3" cx="86.73" cy="79.71" r="22.67"/><path class="cls-2" d="M109.35,76.38a23.08,23.08,0,0,0-.62-3.24A22.06,22.06,0,0,0,106.26,67a27.84,27.84,0,0,0-4.33-5.3A21.6,21.6,0,0,0,96.38,58a27.1,27.1,0,0,0-6.27-2,3,3,0,0,1-.88.1c-.37,0-.81,0-1.31,0-1-.07-2.2,0-3.49,0A16.62,16.62,0,0,0,77.58,58c-2.1,1.11-3,2-1.39,1.3-2.73,1.6-2.23.92-4.27,2.65.16-.27.36-.5.55-.76a11.71,11.71,0,0,0-2.38,1.91L69.4,64.3A9.21,9.21,0,0,0,68,66c-.2.28-.39.54-.56.82s-.31.56-.46.85a18.63,18.63,0,0,0-.88,1.79c-.28.65-.64,1.32-.93,2.14.9-2.06-.22,1,0,.83-.32.44-.77,2.46-.68,1.75-.09.35-.19.7-.25,1.05l-.13,1a13.36,13.36,0,0,0-.14,2c0,.61,0,1.19,0,1.71s0,1,0,1.42a9.48,9.48,0,0,0,.15,1,32.33,32.33,0,0,0,1.09,4.77l.13.19A31.69,31.69,0,0,0,67,91a21.74,21.74,0,0,0,6.34,6.9l.74.56.53.31a6.12,6.12,0,0,0,.65.34c.35.15.66.31,1.88.81A17.83,17.83,0,0,0,80,101c1,.25,2,.48,2.46.64-1.13-.23-1.79-.33-2.47-.45a12.66,12.66,0,0,1-2.47-.86c.41.24-.54-.19-1.36-.56s-1.41-.81-.5-.17a25.52,25.52,0,0,0,7.26,2.49,18.38,18.38,0,0,0,1.94.25l1.9.08a18.12,18.12,0,0,0,3.51-.43c-.07.1.23.12.76.07a13.14,13.14,0,0,0,2.06-.43,24.23,24.23,0,0,0,2.39-.86c.73-.33,1.37-.69,1.8-.9l.15,0c.75-.37,1.36-.77,2.08-1.21.35-.24.7-.53,1.1-.85l.64-.51.66-.65a25.11,25.11,0,0,0,5.33-7.08A20.88,20.88,0,0,0,109,84a27.49,27.49,0,0,0,.36-4.25,25.49,25.49,0,0,1-1,6.74,22.63,22.63,0,0,1-1.18,2.87c-.23.43-.43.87-.69,1.27s-.53.75-.79,1.1a18.64,18.64,0,0,0,1.63-2.86c.33-.7.53-1.36,1-2.55-.15.42-.34.83-.51,1.23l.39-1c-.12.26,0,0,0-.21s.14-.56.1-.49a19.4,19.4,0,0,1-1.56,3.58c1-1.82.41-.6.17,0l-.48.89c-.17.29-.38.56-.56.84.28-.38,1-1.41.2-.16L105.31,92a11.32,11.32,0,0,1-.91,1.1c.29-.45.62-.86.87-1.33-1.37,2-3,3.09-4.74,4.66l-.75.21a19.29,19.29,0,0,1-1.89,1.18l.17-.2-1.17.62-1.21.52c-.63.33-1,.5-1.23.63a2.3,2.3,0,0,0-.42.32,13.1,13.1,0,0,1-2.52.74l1.2-.5-1.16.24c.8-.15-.92.37-1.21.44l-1.42.22-.71,0h-1.4a20,20,0,0,1-2.58,0,3.68,3.68,0,0,0-1.38,0,22.17,22.17,0,0,1-9-3.37l-1.16-.72c-.68-.62-1.31-1.12-1.82-1.65s-1-1-1.42-1.54-.85-1.07-1.27-1.7l-.62-1a7.36,7.36,0,0,1-.63-1.19l.15.27c-.3-.63-.66-1.24-.92-1.9l-.59-1.8c-.13-.54-.26-1-.38-1.57A11,11,0,0,1,64.91,83l-.11-1c0-.35,0-.74,0-1.16s0-.86,0-1.25l.1-1.08a14.88,14.88,0,0,1,.17-1.73c.12-1,.13-1.69.2-2.27a16.81,16.81,0,0,1,2.1-5l-.37,1,.69-1.09a26.73,26.73,0,0,1,3.05-4.22c.68-.72,1.22-1.16,1.59-1.53s.58-.66.77-.87a8.75,8.75,0,0,1,1.11-1.35c.57-.3,1.16-.57,1.73-.85s1.2-.46,1.79-.69l-.11,0a5.9,5.9,0,0,1,1.13-.69c.32-.15.62-.27,1-.41a13.85,13.85,0,0,1,1.62-.42,29.1,29.1,0,0,1,3-.53l-.27-.2a11.73,11.73,0,0,0,2.29-.1,14.64,14.64,0,0,1,2.7,0c.28,0,.72.12,1.23.23l.83.17.9.28c1.24.32,2.52.85,3.52,1.09.92.5,1.76.84,2.46,1.27l1.06.56c.34.19.65.4,1,.6l.94.59c.3.22.58.46.88.7s.6.49.9.77l.88,1c.72.81,1.23,1.6,1.69,2.14a4.24,4.24,0,0,1,.69,1.23l-.2-.34.29.76.14,0a20.42,20.42,0,0,1,1.74,3.91,10.08,10.08,0,0,1,.5,1.43c.14.48.29,1,.41,1.46-.19-.75-.39-1.52-.59-2.32V73l-.61-1.65c-.21-.66-.58-1.27-.74-1.7l.5,1c-.53-1.14,0-.21.12.1a25.22,25.22,0,0,1,1.16,3.59,5.77,5.77,0,0,1,.2.93c.07.56.27,1.58.32,2.48s.09,1.68.1,1.73v.23c0-.19,0-.61,0-1.19A14.1,14.1,0,0,0,109.35,76.38Z"/><rect class="cls-4" x="85.58" y="100.9" width="91.03" height="2.21"/><path class="cls-1" d="M99.17,121.08c9.6,0,14.52,8.22,17.38,17.38,5.41,17.38-7.78,17.38-17.38,17.38a17.38,17.38,0,1,1,0-34.76Z"/><path class="cls-2" d="M115.75,137.48l.12.45c-.4-1.45-.91-2.94-1.46-4.39.57,1.59,1.07,3.37,1.51,5.06s.76,3.26,1.15,4.5a9.59,9.59,0,0,0-.18,1.86c0,.83-.16,1.6-.13,1.63a9.17,9.17,0,0,1-.27,1.88,9.17,9.17,0,0,0,.24-1.29,9.17,9.17,0,0,1-.24,1.29,6.75,6.75,0,0,1-3.84,4.56,17.62,17.62,0,0,1-6.76,1.39c-1.33.09-3.85.1-6.43.05a15.87,15.87,0,0,1-5.93-1.15,7.34,7.34,0,0,1-1-.46,6.94,6.94,0,0,0,1.14.53,19.93,19.93,0,0,1-2.18-.75,18.31,18.31,0,0,1-1.91-1,3.33,3.33,0,0,0,.63.65c-.21-.13-.39-.29-.59-.44a11.47,11.47,0,0,1-2.41-1.72c.17.06-.22-.37-.56-.75l.1.18a18,18,0,0,1-3.22-5,2.53,2.53,0,0,1-.15-.51,9.89,9.89,0,0,1-.56-1.58s0-.29-.09-.54-.06-.44,0,0c-.15-.61-.29-1.23-.38-1.85s-.14-1.24-.16-1.85a16.73,16.73,0,0,1,5-12.18l-.09.07a16.73,16.73,0,0,1,7.58-4.37l1-.26.85-.13.85-.13,1,0c-.41,0,1.52-.06.75,0-1,.06-1.1,0-2,.12h0a18,18,0,0,0-11,5.4,19.61,19.61,0,0,0-2.63,3.48,18.06,18.06,0,0,0-1.73,4.14,17.33,17.33,0,0,0,0,9.35c.18.63.3,1.1.44,1.66a17.81,17.81,0,0,0,5,7.13l-.1-.1c.57.53,1.13.92,1.64,1.37a15.64,15.64,0,0,0,1.78,1.15s.22.07.33.1a12.88,12.88,0,0,0,4.38,1.5,18.53,18.53,0,0,0,3.16.25c.9,0,1.47,0,1.61,0l.47,0c3,.08,6.29.26,9-.38a15.4,15.4,0,0,0,1.66-.69c.48-.08.53-.25,1.08-.44,1.51-.31,2.22-1,1.48-.65a9.8,9.8,0,0,0,2.77-2.39,9.13,9.13,0,0,0,.77-1.36,4.5,4.5,0,0,1,.44-.81c.2-.54.22-.74.3-.93a4.3,4.3,0,0,0,.26-1,6,6,0,0,0,.12-1.61c0-.73-.1-1.45-.11-1.61l0,.18a18.58,18.58,0,0,0-.37-3.44,45,45,0,0,0-3.77-9.84s.33.64.3.69a29.32,29.32,0,0,0-3-4.9l-.58-.72c-.4-.47-.23-.28-.54-.61l0,0c-.48-.46-.66-.7-1.12-1.11l-.37-.31-.49-.42h0c-.11-.08-.17-.15-.31-.24l-1.18-.8-1.26-.68-.1-.06-.28-.11-.4-.16,0,0-.4-.17c-.07,0-.16-.06,0,0a4.72,4.72,0,0,0-.72-.25,6.93,6.93,0,0,1,1,.39,7.46,7.46,0,0,1,1,.46,9.89,9.89,0,0,0-1-.46c-.17-.07-.43-.19-.73-.3l-.93-.27-.5-.14c-.14,0-.33-.06-.58-.1a6.25,6.25,0,0,1,.84.17,6.2,6.2,0,0,0-.92-.18l-1-.17-.5,0h-.29l.61,0-.8,0h0l-.73,0h.25c-.37,0,2,.09,1.49.09.12,0-2.06-.12-1.82-.11s-.16,0,.07,0h.25l.33,0,1,0a1.13,1.13,0,0,1,.18,0c-.18,0-.69,0-.89-.07l-.47,0h-.07l-.39,0,.4,0,.73,0a5.44,5.44,0,0,1,.69,0l.26,0,.5.08.73.13.17,0,1.3.37c.13,0,.49.2.22.09-.6-.21.24.05-.4-.14l-.68-.19,1,.28-.07,0c.3.11.88.36,1.2.5l-.16-.07.41.17s.1.05,0,0c.19.08.36.2.5.27s.54.29,1,.59l.88.62a4.7,4.7,0,0,1,.54.44,3.68,3.68,0,0,0-.34-.29l-.81-.58a8.29,8.29,0,0,0-1-.6l.59.33,1,.72c.71.53,1.34,1.13,1.42,1.19l.32.33c.27.29-.09-.08.1.13,0,0,0,0,0,0l.18.2a20.25,20.25,0,0,1,1.38,1.64l-.52-.61,0-.06-.25-.3.7.89.14.18h0c.07.11.06.1,0,.06l0,0c.11.23.91,1.24,1.23,1.88l.15.24c.37.63.58,1.09.91,1.77.13.21.14.22,0,0,.08.17.17.34.25.52-.26-.46.39,1,.11.49.06.16.19.48.33.77,0,0,.07.06.22.43l.29.85c0,.11,0-.05-.05,0a11.11,11.11,0,0,1,.4,1.24,12,12,0,0,0,.45,1.2C115.83,137.52,115.8,137.53,115.75,137.48Z"/><text class="cls-5" transform="translate(132.41 76.94)">ᛋ</text><text class="cls-5" transform="translate(91.97 148.52)">ᛟ</text><text class="cls-5" transform="translate(11.09 88.01)">ᛞ</text><path class="cls-1" d="M86.69,34.79a17.38,17.38,0,0,1-19.54-14.9C65.87,10.38,72.48-.24,82.06.35s18.32,11.59,19.54,14.9C104.92,24.25,96.21,33.51,86.69,34.79Z"/><path class="cls-2" d="M89.16,34.27a16,16,0,0,0,2.35-.81,20.19,20.19,0,0,0,8-5.94,14.7,14.7,0,0,0,2.45-4.3l.37-1.12c.1-.38.16-.78.24-1.18l.12-.6c0-.21,0-.42,0-.63,0-.43.08-.87,0-1.32a9.84,9.84,0,0,1-.32-1.61,15.51,15.51,0,0,0-.8-2.55,16.57,16.57,0,0,0-3-4.4c-1.16-1.33-2-1.8-1.18-.78-1.67-1.73-1-1.48-2.59-2.79.22.09.44.18.65.29A11.77,11.77,0,0,0,93.91,4.9L93,4.47A8,8,0,0,0,91.7,3.41a9.27,9.27,0,0,0-1.27-.76L89.07,2a17.26,17.26,0,0,1-1.6-.81c.74.47.54.42.18.29s-.93-.28-.87-.15c-.17-.12-.62-.33-1-.5s-.6-.23-.32-.21C85,.42,84.42.3,83.91.19L82.39.09c-.47,0-.92,0-1.33,0A10.93,10.93,0,0,1,80,0l-.8.25a29.09,29.09,0,0,0-3.63,1.13l-.09.21c-.35.25-.84.59-1.34.9s-.93.68-1.26.86a14.62,14.62,0,0,0-4,6c-1,2-.32,1.24-.86,3.16a14.82,14.82,0,0,0-.5,2.25c-.08.8-.22,1.53-.26,1.92a16.37,16.37,0,0,1,.35-3.89c-.32.67.81-3.1.18-1.53A24.68,24.68,0,0,0,67,17.09a15.56,15.56,0,0,0,.85,5.55c-.06-.05,0,.18.08.57s.34.91.58,1.49.6,1.16.89,1.7l.86,1.28,0,.09c.38.5.74.93,1.15,1.42A18.39,18.39,0,0,0,79,34.09a16.87,16.87,0,0,0,4.44.83,22.55,22.55,0,0,0,3.25-.13,19.22,19.22,0,0,1-5.21-.08,16.5,16.5,0,0,1-4.29-1.38,16.26,16.26,0,0,0,4.4,1.38c-.33-.05-.66-.15-1-.22l.82.18c-.42-.07.66.11.54.07a12.48,12.48,0,0,1-1.48-.29A10.36,10.36,0,0,1,79,34c1.53.53.52.19.07,0a9.06,9.06,0,0,1-1.45-.56c.32.16,1.2.54.16.09a13.65,13.65,0,0,1-1.91-1c.37.18.71.42,1.09.57a17.22,17.22,0,0,1-4.22-3c-.13-.15-.24-.31-.35-.46a14.53,14.53,0,0,1-1.15-1.34l.14.14a13.6,13.6,0,0,1-1.16-1.75c-.61-1-.65-1.12-.79-1.28a10.79,10.79,0,0,1-.77-1.91l.4.92-.28-.88c.19.6-.32-.71-.37-.94a10.14,10.14,0,0,1-.33-1.64L68,20A19.81,19.81,0,0,1,68,18c0-.58.08-1,0-1A21.11,21.11,0,0,1,70,10l.37-.92c.34-.58.7-1,1-1.47s.61-.81.9-1.19a10.35,10.35,0,0,1,1-1.14A9.44,9.44,0,0,1,74.6,4.1l-.12.19a7.94,7.94,0,0,1,1.1-1L76.2,3l.57-.25a7.81,7.81,0,0,1,1-.48c.34-.13.7-.26,1.12-.39s.91-.11,1.49-.15,1.17,0,1.64,0a11.76,11.76,0,0,0,1.25.06A11.2,11.2,0,0,0,85,1.72a8.12,8.12,0,0,1,2,.67c.64.35,1.26.68,1.77,1A6.39,6.39,0,0,0,88,3.13a7.31,7.31,0,0,1,.81.56,13,13,0,0,1,1.56.9c.42.29.93.56,1.85,1.19,2.34,2,2.25,1.38,3.34,2.15.66.76,1.3,1.52,1.89,2.31v-.09a6.61,6.61,0,0,1,1.33,1.31,25.54,25.54,0,0,1,2.07,3v-.22a12.91,12.91,0,0,1,.67,1.6,6.82,6.82,0,0,1,.52,2,8.06,8.06,0,0,1,.09,1c0,.4,0,.88-.05,1.36s-.15,1-.21,1.48-.24.92-.31,1.3l-.17.55-.22.5-.39.93c-.29.57-.59,1.07-.85,1.57l-1,1.39c-.38.44-.79.9-1.26,1.4a21.89,21.89,0,0,1-2.42,2l.23-.18-.5.35,0,.06-1.44.9c-.51.28-1,.52-1.41.72A22.28,22.28,0,0,1,90,34c.54-.17,1.12-.43,1.71-.66l-.06,0c.28-.1.73-.36,1.2-.59a11.32,11.32,0,0,0,1.23-.69c-.23.14-.46.3-.71.43.83-.49.16-.05-.09.06a17.26,17.26,0,0,1-2.61,1.18A6.58,6.58,0,0,1,90,34c-.42.11-1.17.37-1.84.5l-1.3.24-.17,0,.89-.16A12.51,12.51,0,0,0,89.16,34.27Z"/><text class="cls-5" transform="translate(80.72 29.78)">ᛁ</text></g></g></svg>