<svg xmlns="http://www.w3.org/2000/svg" viewBox="0 0 225.21 56.77"><defs><style>.cls-1{font-size:48px;font-family:TempusSansITC, Tempus Sans ITC;}.cls-1,.cls-2{fill:#1d1d1b;}.cls-3{fill:#2061ac;}.cls-4{fill:none;}</style></defs><title>3rd</title><g id="Layer_2" data-name="Layer 2"><g id="Layer_1-2" data-name="Layer 1"><text class="cls-1" transform="translate(0 40.42)"><tspan xml:space="preserve">Med  Clue</tspan></text><path class="cls-2" d="M210.77,40.86a.36.36,0,0,1-.1-.11c-.73-1-2.17-1.88-2.9-2.92,0,0,0,.06,0,0,.37-.52,1.37-1.38,1.74-1.9a.18.18,0,0,0,0-.21,15.11,15.11,0,0,1-1.3-5A15.69,15.69,0,0,1,210,21.67a9,9,0,0,1,4.09-4.07,6.07,6.07,0,0,1,3.44-.53,7.59,7.59,0,0,1,5.12,3.36,13.57,13.57,0,0,1,2.45,6.48,15.44,15.44,0,0,1-2,10.29A8,8,0,0,1,218.13,41,6.48,6.48,0,0,1,212,39.27c-.07-.06-.11-.06-.17,0Zm5.91-20.48c-3.35,0-6.14,3.82-6.16,8.67s2.75,8.73,6,8.8c3.5.09,6.24-3.86,6.28-8.61C222.88,24.24,220,20.35,216.68,20.38Z"/><path class="cls-3" d="M216.68,20.4c3.34,0,6.2,3.84,6.16,8.83,0,4.74-2.78,8.68-6.28,8.6-3.29-.08-6.06-3.86-6-8.78S213.33,20.38,216.68,20.4Zm4.67,9v-.16c0-.06,0-.11,0-.17a8.19,8.19,0,0,0-.4-2.33A7,7,0,0,0,220.1,25c0-.06-.07-.09-.12,0-.33.48-.67.95-1,1.43a.11.11,0,0,0,0,.15,5.11,5.11,0,0,1,.78,3.2,4.82,4.82,0,0,1-.75,2.38c-.07.11-.06.16,0,.24l.93,1.33c.1.13.1.13.19,0A7.91,7.91,0,0,0,221.35,29.4Z"/><rect class="cls-2" x="196.56" y="41.36" width="15.15" height="5.66" transform="translate(28.54 157.29) rotate(-45)"/><path class="cls-4" d="M105.38,25a2.69,2.69,0,0,0,.81-.56,1.09,1.09,0,0,0,.29-.76,1,1,0,0,0-.28-.73,2.25,2.25,0,0,0-.77-.51,6.14,6.14,0,0,0-1.16-.35c-.45-.1-.93-.18-1.44-.26l-.1,3.91c.52-.09,1-.2,1.46-.32A5.7,5.7,0,0,0,105.38,25Z"/><path class="cls-4" d="M104.49,35.41a2.47,2.47,0,0,0,.62-.43.69.69,0,0,0,.22-.5c0-.33-.27-.59-.8-.77a17.7,17.7,0,0,0-2-.48l-.09,3.05,1.13-.44A9.24,9.24,0,0,0,104.49,35.41Z"/><path class="cls-4" d="M97.17,15.15a3.27,3.27,0,0,0-.91,1,2.37,2.37,0,0,0-.32,1.27,1.19,1.19,0,0,0,.35.89,2.61,2.61,0,0,0,1,.58,7.59,7.59,0,0,0,1.4.39c.54.1,1.11.19,1.72.27L100.22,14a13,13,0,0,0-1.69.45A5.24,5.24,0,0,0,97.17,15.15Z"/><path class="cls-4" d="M108.94,11.79a1.15,1.15,0,0,0-.36-.28.92.92,0,0,0-1.21.28,1.1,1.1,0,0,0,.82.42A.89.89,0,0,0,108.94,11.79Z"/><path class="cls-4" d="M98.28,28.76a2,2,0,0,0-.7.34.54.54,0,0,0,0,.92,2.47,2.47,0,0,0,.71.34,9.43,9.43,0,0,0,1.08.27l1.32.24-.07-2.63c-.47.08-.9.16-1.3.25A8.62,8.62,0,0,0,98.28,28.76Z"/><path d="M99.38,37.68a9,9,0,0,0-1.35.93,6.62,6.62,0,0,0-1.1,1.2,4.58,4.58,0,0,0-.71,1.53l1.57.59a3.3,3.3,0,0,1,1.11-1.78,8.87,8.87,0,0,1,2-1.27l0-1.94A15.71,15.71,0,0,0,99.38,37.68Z"/><path d="M98.65,19.23a7.59,7.59,0,0,1-1.4-.39,2.61,2.61,0,0,1-1-.58,1.19,1.19,0,0,1-.35-.89,2.37,2.37,0,0,1,.32-1.27,3.27,3.27,0,0,1,.91-1,5.24,5.24,0,0,1,1.36-.68,13,13,0,0,1,1.69-.45l0-1.86a19.64,19.64,0,0,0-2.49.67,8.14,8.14,0,0,0-2.06,1.05,4.85,4.85,0,0,0-1.42,1.54,4.2,4.2,0,0,0-.52,2.13,2.78,2.78,0,0,0,.58,1.82,4.13,4.13,0,0,0,1.54,1.15,9.62,9.62,0,0,0,2.16.67c.82.15,1.64.29,2.47.4l-.07-2.09C99.76,19.42,99.19,19.33,98.65,19.23Z"/><path d="M104.27,22.13a6.14,6.14,0,0,1,1.16.35,2.25,2.25,0,0,1,.77.51,1,1,0,0,1,.28.73,1.09,1.09,0,0,1-.29.76,2.69,2.69,0,0,1-.81.56,5.7,5.7,0,0,1-1.19.42c-.46.12-.94.23-1.46.32l-.07,2.11c.74-.14,1.46-.31,2.18-.51a8.85,8.85,0,0,0,1.92-.79,4.38,4.38,0,0,0,1.37-1.17,2.67,2.67,0,0,0,.53-1.7,2.83,2.83,0,0,0-.48-1.68,3.77,3.77,0,0,0-1.29-1.1,7.82,7.82,0,0,0-1.84-.69c-.68-.17-1.4-.31-2.15-.42l-.07,2C103.34,22,103.82,22,104.27,22.13Z"/><path d="M110.35,13.1a1,1,0,0,0,.09-.44,1.38,1.38,0,0,0-.22-.74,2.6,2.6,0,0,0-.59-.66,3.41,3.41,0,0,0-.84-.48,2.74,2.74,0,0,0-1-.19,2.22,2.22,0,0,0-1.13.3,2.61,2.61,0,0,0-.84.74l-1.34,0c-.45,0-.92.06-1.4.11l0,1.85,1.49-.12,1.46-.07a3.36,3.36,0,0,0,1.08.37,6.59,6.59,0,0,0,1.1.1,2.7,2.7,0,0,1,1.29.22.86.86,0,0,1,.42.63h.29a1.27,1.27,0,0,0-.09-.47,1,1,0,0,0-.3-.44,1.67,1.67,0,0,0-.61-.32,3.11,3.11,0,0,0-1-.13V13.1Zm-3-1.31a.92.92,0,0,1,1.21-.28,1.15,1.15,0,0,1,.36.28.89.89,0,0,1-.75.42A1.1,1.1,0,0,1,107.37,11.79Z"/><path d="M99.37,30.63a9.43,9.43,0,0,1-1.08-.27,2.47,2.47,0,0,1-.71-.34.54.54,0,0,1,0-.92,2,2,0,0,1,.7-.34,8.62,8.62,0,0,1,1-.27c.4-.09.83-.17,1.3-.25l-.07-2c-.68.14-1.36.3-2,.46a8.62,8.62,0,0,0-1.76.63,3.79,3.79,0,0,0-1.24.94,1.94,1.94,0,0,0-.47,1.32,2,2,0,0,0,.5,1.39,4.38,4.38,0,0,0,1.31.95,9.7,9.7,0,0,0,1.82.63c.67.16,1.35.31,2,.43l0-2.08Z"/><path class="cls-3" d="M103.14,10.21c0-.39,0-.67,0-.87s0-.32,0-.39V8.81A1.89,1.89,0,0,0,103,8a1.67,1.67,0,0,0-.39-.5,1.54,1.54,0,0,0-.51-.26,2.23,2.23,0,0,0-.5-.07,2,2,0,0,0-.53.08,1.3,1.3,0,0,0-.49.29,1.52,1.52,0,0,0-.37.53,2,2,0,0,0-.16.88l.1,3.21,0,1.86.15,5.48.07,2.09.11,4.61.07,2,.07,2.63,0,2.08.12,4,0,1.94L101,43h1.22l.14-4.76.05-2,.09-3.05,0-2,.09-3.31.07-2.11.1-3.91.07-2,.16-6.19,0-1.85C103.12,11.12,103.13,10.59,103.14,10.21Z"/><path d="M104.53,33.71c.53.18.8.44.8.77a.69.69,0,0,1-.22.5,2.47,2.47,0,0,1-.62.43,9.24,9.24,0,0,1-.93.43l-1.13.44-.05,2,1.93-.75a13.15,13.15,0,0,0,1.72-.81,5.15,5.15,0,0,0,1.23-1,1.82,1.82,0,0,0,.46-1.25,2,2,0,0,0-.44-1.32,3.74,3.74,0,0,0-1.17-.91,8.2,8.2,0,0,0-1.65-.62c-.62-.17-1.25-.31-1.89-.43l0,2A17.7,17.7,0,0,1,104.53,33.71Z"/></g></g></svg>