<?xml version='1.0' encoding='utf-8'?>
<!DOCTYPE svg PUBLIC '-//W3C//DTD SVG 1.1//EN' 'http://www.w3.org/Graphics/SVG/1.1/DTD/svg11.dtd'>
<svg version="1.1" xmlns="http://www.w3.org/2000/svg" viewBox="0 0 512 512" xmlns:xlink="http://www.w3.org/1999/xlink" enable-background="new 0 0 512 512">
  <g>
    <g>
      <path d="m256,240.7c65.8,0 119.3-51.5 119.3-114.8-0.1-63.4-53.5-114.9-119.3-114.9-65.7,0-119.2,51.5-119.2,114.8 0,63.3 53.4,114.9 119.2,114.9z"/>
      <path d="m350.1,422.5h-28v27c0,11.3-9.1,20.4-20.4,20.4-11.3,0-20.4-9.1-20.4-20.4v-27h-28c-11.3,0-20.4-9.1-20.4-20.4s9.1-20.4 20.4-20.4h28v-26.9c0-11.3 9.1-20.4 20.4-20.4 11.3,0 20.4,9.1 20.4,20.4v26.9h28c11.3,0 20.4,9.1 20.4,20.4s-9.1,20.4-20.4,20.4zm-23-157.4c-21.4,10.4-45.5,16.4-71.1,16.4-25.5,0-49.6-6-71.1-16.4-100.5,28.1-173.9,114-173.9,215.5 0,11.3 9.1,20.4 20.4,20.4h449.2c11.3,0 20.4-9.1 20.4-20.4 5.68434e-14-101.5-73.4-187.4-173.9-215.5z"/>
    </g>
  </g>
</svg>
